HIERARCHY
ROOT Hips
{
	OFFSET -0.001795 -0.223333 0.028219
	CHANNELS 6 Xposition Yposition Zposition Zrotation Yrotation Xrotation 
	JOINT LeftUpLeg
	{
		OFFSET 0.069520 -0.091406 -0.006815
		CHANNELS 3 Zrotation Yrotation Xrotation
		JOINT LeftLeg
		{
			OFFSET 0.034277 -0.375199 -0.004496
			CHANNELS 3 Zrotation Yrotation Xrotation
			JOINT LeftFoot
			{
				OFFSET -0.013596 -0.397961 -0.043693
				CHANNELS 3 Zrotation Yrotation Xrotation
				JOINT LeftToe
				{
					OFFSET 0.026358 -0.055791 0.119288
					CHANNELS 3 Zrotation Yrotation Xrotation
					End Site
					{
						OFFSET 0.000000 0.000000 0.000000
					}
				}
			}
		}
	}
	JOINT RightUpLeg
	{
		OFFSET -0.067670 -0.090522 -0.004320
		CHANNELS 3 Zrotation Yrotation Xrotation
		JOINT RightLeg
		{
			OFFSET -0.038290 -0.382569 -0.008850
			CHANNELS 3 Zrotation Yrotation Xrotation
			JOINT RightFoot
			{
				OFFSET 0.015774 -0.398415 -0.042312
				CHANNELS 3 Zrotation Yrotation Xrotation
				JOINT RightToe
				{
					OFFSET -0.025372 -0.048144 0.123348
					CHANNELS 3 Zrotation Yrotation Xrotation
					End Site
					{
						OFFSET 0.000000 0.000000 0.000000
					}
				}
			}
		}
	}
	JOINT Spine
	{
		OFFSET -0.002533 0.108963 -0.026696
		CHANNELS 3 Zrotation Yrotation Xrotation
		JOINT Spine1
		{
			OFFSET 0.005487 0.135180 0.001092
			CHANNELS 3 Zrotation Yrotation Xrotation
			JOINT Spine2
			{
				OFFSET 0.001457 0.052922 0.025425
				CHANNELS 3 Zrotation Yrotation Xrotation
				JOINT Neck
				{
					OFFSET -0.002778 0.213870 -0.042857
					CHANNELS 3 Zrotation Yrotation Xrotation
					JOINT Head
					{
						OFFSET 0.005152 0.064970 0.051349
						CHANNELS 3 Zrotation Yrotation Xrotation
						End Site
						{
							OFFSET 0.000000 0.000000 0.000000
						}
					}
				}
				JOINT LeftShoulder
				{
					OFFSET 0.078845 0.121749 -0.034090
					CHANNELS 3 Zrotation Yrotation Xrotation
					JOINT LeftArm
					{
						OFFSET 0.090977 0.030469 -0.008868
						CHANNELS 3 Zrotation Yrotation Xrotation
						JOINT LeftForeArm
						{
							OFFSET 0.259612 -0.012772 -0.027456
							CHANNELS 3 Zrotation Yrotation Xrotation
							JOINT LeftHand
							{
								OFFSET 0.249234 0.008986 -0.001171
								CHANNELS 3 Zrotation Yrotation Xrotation
								End Site
								{
									OFFSET 0.000000 0.000000 0.000000
								}
							}
						}
					}
				}
				JOINT RightShoulder
				{
					OFFSET -0.081759 0.118833 -0.038615
					CHANNELS 3 Zrotation Yrotation Xrotation
					JOINT RightArm
					{
						OFFSET -0.096012 0.032551 -0.009143
						CHANNELS 3 Zrotation Yrotation Xrotation
						JOINT RightForeArm
						{
							OFFSET -0.253742 -0.013329 -0.021401
							CHANNELS 3 Zrotation Yrotation Xrotation
							JOINT RightHand
							{
								OFFSET -0.255298 0.007772 -0.005559
								CHANNELS 3 Zrotation Yrotation Xrotation
								End Site
								{
									OFFSET 0.000000 0.000000 0.000000
								}
							}
						}
					}
				}
			}
		}
	}
}
MOTION
Frames: 5
Frame Time: 0.050000
-0.229969 0.842941 0.181800 5.231118 25.630399 15.716988 12.547692 -3.892167 -39.126087 -18.871279 2.639583 38.711982 18.856493 36.213793 7.176558 0.000000 0.000000 0.000000 -7.775113 -5.079679 -49.557003 3.419306 -5.527772 49.904538 -7.730440 -18.136791 -2.297647 0.000000 0.000000 0.000000 -6.025064 -9.034691 64.580032 7.543314 -0.464432 -25.551405 9.986419 22.422757 30.434943 2.116126 5.143249 -32.580135 0.000000 0.000000 0.000000 -24.764133 -9.135978 -7.887129 -50.740371 0.500609 -5.280874 -43.098281 -69.765685 26.157529 0.000000 0.000000 0.000000 -3.541529 27.227981 10.458450 15.627953 36.920453 2.896370 -57.360698 0.645805 5.062473 0.000000 0.000000 0.000000 
-0.231190 0.846433 0.181327 4.777945 25.774209 15.284603 12.583259 -3.759260 -38.309929 -18.067730 2.297519 37.871870 18.488373 35.599954 6.994794 0.000000 0.000000 0.000000 -7.194088 -4.583677 -48.591081 3.280063 -5.316973 48.600671 -7.867565 -18.485509 -2.077182 0.000000 0.000000 0.000000 -6.253267 -8.687760 63.760186 7.364507 -0.455793 -25.100156 10.118721 21.696124 30.489286 1.516355 5.333368 -32.595151 0.000000 0.000000 0.000000 -24.957945 -9.279546 -7.617082 -50.011083 0.224476 -5.093246 -38.949387 -69.501429 23.317268 0.000000 0.000000 0.000000 -2.766973 27.577601 10.876523 17.777546 38.642963 3.694292 -61.906152 4.267185 3.581902 0.000000 0.000000 0.000000 
-0.231672 0.851335 0.180865 4.457802 26.150182 14.994325 12.310602 -3.747379 -37.600495 -16.983308 1.825420 36.990724 17.983735 34.722827 7.151820 0.000000 0.000000 0.000000 -7.128650 -4.459744 -47.734427 3.690568 -5.502940 47.379117 -8.016159 -18.691468 -0.917164 0.000000 0.000000 0.000000 -6.471035 -8.467765 62.969034 7.604110 -0.538157 -24.708859 9.883403 21.208289 30.453804 0.932822 5.569103 -33.145203 0.000000 0.000000 0.000000 -24.361097 -9.027953 -7.421991 -50.288217 -0.173494 -5.125719 -35.296217 -69.094450 20.557031 0.000000 0.000000 0.000000 -1.662722 27.684222 11.415168 20.745279 40.403568 4.802946 -66.327372 8.718418 1.339100 0.000000 0.000000 0.000000 
-0.231728 0.858727 0.180199 4.232376 26.605395 14.779530 11.713035 -3.742767 -36.503261 -15.487395 1.232754 35.379722 17.261559 33.460930 7.436112 0.000000 0.000000 0.000000 -7.025637 -4.208793 -46.281208 3.944552 -5.438061 45.114015 -8.246395 -19.068478 0.239418 0.000000 0.000000 0.000000 -6.624977 -8.315699 62.215346 7.662869 -0.549359 -24.519783 10.124539 20.528916 30.595109 0.734985 5.605841 -32.536561 0.000000 0.000000 0.000000 -24.439879 -8.876280 -7.344629 -50.042574 -0.049802 -5.206148 -33.475078 -68.232261 19.149738 0.000000 0.000000 0.000000 -0.578094 27.389386 11.730913 24.018127 41.675014 5.989719 -69.890255 14.283113 -2.059236 0.000000 0.000000 0.000000 
-0.231522 0.867883 0.178993 3.900214 27.208653 14.605690 10.786911 -3.755816 -35.071701 -13.205554 0.451076 33.049653 16.305128 31.838011 7.565933 0.000000 0.000000 0.000000 -6.944777 -3.956390 -44.517688 4.429985 -5.386269 42.110035 -8.577058 -19.535021 1.801059 0.000000 0.000000 0.000000 -6.773801 -8.176439 61.255504 8.118299 -0.711734 -23.743459 9.950738 20.405705 30.333271 0.518262 5.742941 -32.693729 0.000000 0.000000 0.000000 -24.237803 -8.370960 -7.630707 -49.838656 0.022352 -5.223430 -33.686541 -67.933609 19.132066 0.000000 0.000000 0.000000 0.789853 27.311621 12.383248 27.027312 42.583124 7.082936 -72.955884 18.903928 -5.189591 0.000000 0.000000 0.000000 
